REM DIRINDEX 1\2\6,1\2\7,1\2\8,1\2\9,1\3\10,1\3\11,1\4\12,1\4\13,1\4\14,1\5\15,1\5\16,1\5\17
REM DIRNAME folder01,folder02,folder03,folder04,folder05,folder06,folder07,folder08,folder09,folder10,folder11,folder12,folder13,folder14,folder15,folder16,folder17
TITLE ""
FILE "1400_3_sec07_0633_0649.mp3" MP3
  TRACK 01 AUDIO
    TITLE "0:"
    INDEX 01 00:00:00
  TRACK 02 AUDIO
    TITLE "17:cjc029_5699"
    INDEX 01 00:00:15
  TRACK 03 AUDIO
    TITLE "0:"
    INDEX 01 00:01:30
  TRACK 04 AUDIO
    TITLE "16:cjc029_5700"
    INDEX 01 00:01:36
  TRACK 05 AUDIO
    TITLE "0:"
    INDEX 01 00:02:57
  TRACK 06 AUDIO
    TITLE "17:cjc029_5701"
    INDEX 01 00:03:41
  TRACK 07 AUDIO
    TITLE "0:"
    INDEX 01 00:05:42
  TRACK 08 AUDIO
    TITLE "16:cjc029_5702"
    INDEX 01 00:05:48
  TRACK 09 AUDIO
    TITLE "0:"
    INDEX 01 00:06:55
  TRACK 10 AUDIO
    TITLE "17:cjc029_5703"
    INDEX 01 00:07:37
  TRACK 11 AUDIO
    TITLE "0:"
    INDEX 01 00:09:24
  TRACK 12 AUDIO
    TITLE "16:cjc029_5704"
    INDEX 01 00:09:28
  TRACK 13 AUDIO
    TITLE "0:"
    INDEX 01 00:10:51
  TRACK 14 AUDIO
    TITLE "17:cjc029_5705"
    INDEX 01 00:11:37
  TRACK 15 AUDIO
    TITLE "0:"
    INDEX 01 00:14:72
  TRACK 16 AUDIO
    TITLE "16:cjc029_5706"
    INDEX 01 00:15:03
  TRACK 17 AUDIO
    TITLE "0:"
    INDEX 01 00:16:12
  TRACK 18 AUDIO
    TITLE "17:cjc029_5707"
    INDEX 01 00:16:71
  TRACK 19 AUDIO
    TITLE "0:"
    INDEX 01 00:18:27
  TRACK 20 AUDIO
    TITLE "16:cjc029_5708"
    INDEX 01 00:18:33
  TRACK 21 AUDIO
    TITLE "0:"
    INDEX 01 00:19:38
  TRACK 22 AUDIO
    TITLE "17:cjc029_5709"
    INDEX 01 00:20:18
  TRACK 23 AUDIO
    TITLE "0:"
    INDEX 01 00:21:60
  TRACK 24 AUDIO
    TITLE "16:cjc029_5710"
    INDEX 01 00:21:66
  TRACK 25 AUDIO
    TITLE "0:"
    INDEX 01 00:22:72
  TRACK 26 AUDIO
    TITLE "17:cjc029_5711"
    INDEX 01 00:23:59
  TRACK 27 AUDIO
    TITLE "0:"
    INDEX 01 00:27:00
  TRACK 28 AUDIO
    TITLE "16:cjc029_5712"
    INDEX 01 00:27:04
  TRACK 29 AUDIO
    TITLE "0:"
    INDEX 01 00:28:19
  TRACK 30 AUDIO
    TITLE "17:cjc029_5713"
    INDEX 01 00:29:05
  TRACK 31 AUDIO
    TITLE "0:"
    INDEX 01 00:32:11
  TRACK 32 AUDIO
    TITLE "16:cjc029_5714"
    INDEX 01 00:32:17
  TRACK 33 AUDIO
    TITLE "0:"
    INDEX 01 00:33:28
  TRACK 34 AUDIO
    TITLE "17:cjc029_5715"
    INDEX 01 00:34:12
  TRACK 35 AUDIO
    TITLE "0:"
    INDEX 01 00:35:49
  TRACK 36 AUDIO
    TITLE "16:cjc029_5716"
    INDEX 01 00:35:57
  TRACK 37 AUDIO
    TITLE "0:"
    INDEX 01 00:36:58
  TRACK 38 AUDIO
    TITLE "17:cjc029_5717"
    INDEX 01 00:37:40
  TRACK 39 AUDIO
    TITLE "0:"
    INDEX 01 00:38:67
  TRACK 40 AUDIO
    TITLE "16:cjc029_5718"
    INDEX 01 00:39:02
  TRACK 41 AUDIO
    TITLE "0:"
    INDEX 01 00:40:09
  TRACK 42 AUDIO
    TITLE "17:cjc029_5719"
    INDEX 01 00:40:70
  TRACK 43 AUDIO
    TITLE "0:"
    INDEX 01 00:42:39
  TRACK 44 AUDIO
    TITLE "16:cjc029_5720"
    INDEX 01 00:42:43
  TRACK 45 AUDIO
    TITLE "0:"
    INDEX 01 00:43:40
  TRACK 46 AUDIO
    TITLE "17:cjc029_5721"
    INDEX 01 00:44:24
  TRACK 47 AUDIO
    TITLE "0:"
    INDEX 01 00:45:61
  TRACK 48 AUDIO
    TITLE "16:cjc029_5722"
    INDEX 01 00:45:67
  TRACK 49 AUDIO
    TITLE "0:"
    INDEX 01 00:46:72
  TRACK 50 AUDIO
    TITLE "17:cjc029_5723"
    INDEX 01 00:47:56
  TRACK 51 AUDIO
    TITLE "0:"
    INDEX 01 00:48:63
  TRACK 52 AUDIO
    TITLE "16:cjc029_5724"
    INDEX 01 00:48:69
  TRACK 53 AUDIO
    TITLE "0:"
    INDEX 01 00:49:74
  TRACK 54 AUDIO
    TITLE "17:cjc029_5725"
    INDEX 01 00:50:58
  TRACK 55 AUDIO
    TITLE "0:"
    INDEX 01 00:51:69
  TRACK 56 AUDIO
    TITLE "16:cjc029_5726"
    INDEX 01 00:52:00
  TRACK 57 AUDIO
    TITLE "0:"
    INDEX 01 00:52:69
  TRACK 58 AUDIO
    TITLE "17:cjc029_5727"
    INDEX 01 00:53:57
  TRACK 59 AUDIO
    TITLE "0:"
    INDEX 01 00:54:68
  TRACK 60 AUDIO
    TITLE "16:cjc029_5728"
    INDEX 01 00:54:74
  TRACK 61 AUDIO
    TITLE "0:"
    INDEX 01 00:56:04
  TRACK 62 AUDIO
    TITLE "17:cjc029_5729"
    INDEX 01 00:56:63
  TRACK 63 AUDIO
    TITLE "0:"
    INDEX 01 00:59:14
  TRACK 64 AUDIO
    TITLE "16:cjc029_5730"
    INDEX 01 00:59:20
  TRACK 65 AUDIO
    TITLE "0:"
    INDEX 01 01:00:27
  TRACK 66 AUDIO
    TITLE "17:cjc029_5731"
    INDEX 01 01:01:11
  TRACK 67 AUDIO
    TITLE "0:"
    INDEX 01 01:01:70
  TRACK 68 AUDIO
    TITLE "16:cjc029_5732"
    INDEX 01 01:02:05
  TRACK 69 AUDIO
    TITLE "0:"
    INDEX 01 01:03:08
